<svg width="589" height="166" viewBox="0 0 589 166" fill="none" xmlns="http://www.w3.org/2000/svg">
<path d="M0 10C0 4.47716 4.47715 0 10 0H579C584.523 0 589 4.47715 589 10V156C589 161.523 584.523 166 579 166H9.99999C4.47714 166 0 161.523 0 156V10Z" fill="#FFFBFB"/>
<path d="M34 0H35V166H34V0Z" fill="#C7C7C7"/>
<path d="M71 0H72V166H71V0Z" fill="#C7C7C7"/>
<path d="M108 0H109V166H108V0Z" fill="#C7C7C7"/>
<path d="M145 0H146V166H145V0Z" fill="#C7C7C7"/>
<path d="M182 0H183V166H182V0Z" fill="#C7C7C7"/>
<path d="M219 0H220V166H219V0Z" fill="#C7C7C7"/>
<path d="M330 0H331V166H330V0Z" fill="#C7C7C7"/>
<path d="M321 0H341V98C341 100.761 338.761 103 336 103H326C323.239 103 321 100.761 321 98V0Z" fill="#2A2929"/>
<path d="M256 0H257V166H256V0Z" fill="#C7C7C7"/>
<path d="M293 0H294V166H293V0Z" fill="#C7C7C7"/>
<path d="M367 0H368V166H367V0Z" fill="#C7C7C7"/>
<path d="M404 0H405V166H404V0Z" fill="#C7C7C7"/>
<path d="M441 0H442V166H441V0Z" fill="#C7C7C7"/>
<path d="M25 0H45V98C45 100.761 42.7614 103 40 103H30C27.2386 103 25 100.761 25 98V0Z" fill="#2A2929"/>
<path d="M61 0H81V98C81 100.761 78.7614 103 76 103H66C63.2386 103 61 100.761 61 98V0Z" fill="#2A2929"/>
<path d="M135 0H155V98C155 100.761 152.761 103 150 103H140C137.239 103 135 100.761 135 98V0Z" fill="#2A2929"/>
<path d="M172 0H192V98C192 100.761 189.761 103 187 103H177C174.239 103 172 100.761 172 98V0Z" fill="#2A2929"/>
<path d="M210 0H230V98C230 100.761 227.761 103 225 103H215C212.239 103 210 100.761 210 98V0Z" fill="#2A2929"/>
<path d="M283 0H303V98C303 100.761 300.761 103 298 103H288C285.239 103 283 100.761 283 98V0Z" fill="#2A2929"/>
<path d="M394 0H414V98C414 100.761 411.761 103 409 103H399C396.239 103 394 100.761 394 98V0Z" fill="#2A2929"/>
<path d="M431 0H451V98C451 100.761 448.761 103 446 103H436C433.239 103 431 100.761 431 98V0Z" fill="#2A2929"/>
<path d="M515 0H516V166H515V0Z" fill="#C7C7C7"/>
<path d="M552 0H553V166H552V0Z" fill="#C7C7C7"/>
<path d="M504 0H524V98C524 100.761 521.761 103 519 103H509C506.239 103 504 100.761 504 98V0Z" fill="#2A2929"/>
<path d="M542 0H562V98C562 100.761 559.761 103 557 103H547C544.239 103 542 100.761 542 98V0Z" fill="#2A2929"/>
</svg>
